<svg xmlns="http://www.w3.org/2000/svg" width="18" height="18" fill="none"><g clip-path="url(#a)"><path fill="#000" d="M15.51 12.528c-1.088-.93-2.192-1.493-3.266-.565l-.641.561c-.47.408-1.342 2.312-4.715-1.569-3.372-3.875-1.365-4.479-.895-4.882l.644-.562c1.069-.931.666-2.103-.105-3.309l-.465-.73C5.293.268 4.45-.522 3.379.407L2.8.913C2.327 1.258 1.003 2.38.682 4.51c-.386 2.555.832 5.482 3.625 8.693 2.788 3.212 5.519 4.825 8.105 4.797 2.15-.023 3.448-1.176 3.854-1.596l.58-.506c1.069-.929.405-1.874-.683-2.806l-.654-.563Z"/></g><defs><clipPath id="a"><path fill="#fff" d="M0 0h18v18H0z"/></clipPath></defs></svg>